<svg xmlns="http://www.w3.org/2000/svg" viewBox="0 0 15.166 26.138"><defs><style>.cls-1{fill:#000703;}.cls-2{fill:#fff;}</style></defs><polygon class="cls-1" points="0 26.138 7.578 0 15.166 26.136 7.582 22.283 0 26.138"/><path class="cls-2" d="M8.882,17.546l1.148.444a3.217,3.217,0,0,1-.894,1.756A2.239,2.239,0,0,1,7.6,20.3a2.275,2.275,0,0,1-1.86-.884,4.269,4.269,0,0,1-.82-2.754A4.48,4.48,0,0,1,5.744,13.8a2.342,2.342,0,0,1,1.931-.9,2.226,2.226,0,0,1,1.652.674,2.919,2.919,0,0,1,.694,1.421l-1.172.342a1.588,1.588,0,0,0-.447-.891,1.125,1.125,0,0,0-.79-.311,1.26,1.26,0,0,0-1.062.566,3.262,3.262,0,0,0-.411,1.87,3.467,3.467,0,0,0,.4,1.924,1.219,1.219,0,0,0,1.04.571,1.076,1.076,0,0,0,.811-.363A2.311,2.311,0,0,0,8.882,17.546Z"/></svg>